<svg id="Layer_1" data-name="Layer 1" xmlns="http://www.w3.org/2000/svg" xmlns:xlink="http://www.w3.org/1999/xlink" viewBox="0 0 323.4 99.19"><defs><style>.cls-1{opacity:0.25;}.cls-2{fill-rule:evenodd;fill:url(#linear-gradient);}.cls-3{fill:#fff;}</style><linearGradient id="linear-gradient" x1="101.98" y1="49.6" x2="140.77" y2="49.6" gradientUnits="userSpaceOnUse"><stop offset="0.45" stop-color="#fff"/><stop offset="0.87" stop-color="#fff" stop-opacity="0"/></linearGradient><symbol id="white_logo" data-name="white_logo" viewBox="0 0 323.4 99.19"><g class="cls-1"><path class="cls-2" d="M140.77,17.23V10C119.35,10,102,27.75,102,49.6s17.37,39.56,38.79,39.56V82C123.24,82,109,67.48,109,49.6S123.24,17.23,140.77,17.23Z"/></g><polygon class="cls-3" points="238.24 0 156.56 0 148.77 0 148.77 7.95 148.77 24.32 156.56 24.32 156.56 7.95 238.24 7.95 238.24 24.32 246.03 24.32 246.03 7.95 246.03 0 238.24 0"/><polygon class="cls-3" points="238.24 74.87 238.24 91.24 156.56 91.24 156.56 74.87 148.77 74.87 148.77 99.19 155.31 99.19 156.56 99.19 238.24 99.19 242.13 99.19 246.03 99.19 246.03 74.87 238.24 74.87"/><path class="cls-3" d="M10.83,64.88V37.52H0V34.46H25.18v3.06H14.35V64.88Z"/><path class="cls-3" d="M30,64.88V34.46H41.84c3.21,0,5.67.76,7.36,2.28a8.26,8.26,0,0,1,2.58,6.52A8.22,8.22,0,0,1,50,48.78a8.37,8.37,0,0,1-5.07,2.81A6.45,6.45,0,0,1,48.23,55l5.25,9.92H49.67L44.5,55.13a5.5,5.5,0,0,0-2.24-2.46A7.41,7.41,0,0,0,38.92,52H33.5V64.88ZM33.5,49.22h7.83q7,0,7-6t-7-5.87H33.5Z"/><path class="cls-3" d="M56.07,64.88,69.23,34.46h3L85.35,64.88H81.76l-3.3-7.77H62.92l-3.26,7.77ZM70.67,38.6,64.19,54.14h13L70.75,38.6Z"/><path class="cls-3" d="M90.84,64.88V34.46h10.07q7.23,0,11.17,3.92T116,49.65Q116,57,112.08,61t-11.17,3.93Zm3.47-3h6.34q11.68,0,11.68-12.21T100.65,37.48H94.31Z"/><path class="cls-3" d="M123.3,64.88V34.46h18.84v3H126.69V48h14.56v3H126.69v11h15.45v3Z"/><path class="cls-3" d="M148.77,64.88V34.46h7.79V58.28h13.29v6.6Z"/><path class="cls-3" d="M187.32,65.36a15.84,15.84,0,0,1-8-2,13.92,13.92,0,0,1-5.29-5.52,17.14,17.14,0,0,1-1.9-8.24A17.35,17.35,0,0,1,174,41.4a13.65,13.65,0,0,1,5.33-5.48,15.94,15.94,0,0,1,8-1.94,15.64,15.64,0,0,1,7.91,1.94,13.61,13.61,0,0,1,5.34,5.48,17,17,0,0,1,1.9,8.25,17.14,17.14,0,0,1-1.9,8.24,13.78,13.78,0,0,1-5.34,5.52A15.54,15.54,0,0,1,187.32,65.36Zm0-6.65a6.19,6.19,0,0,0,5.16-2.37,10.54,10.54,0,0,0,1.91-6.69A10.48,10.48,0,0,0,192.52,43a6.9,6.9,0,0,0-10.41,0,10.54,10.54,0,0,0-1.86,6.65,10.73,10.73,0,0,0,1.86,6.69A6.26,6.26,0,0,0,187.32,58.71Z"/><path class="cls-3" d="M223.19,65.36a17.42,17.42,0,0,1-8.5-2,13.29,13.29,0,0,1-5.46-5.48,17.56,17.56,0,0,1-1.86-8.28,17.35,17.35,0,0,1,1.86-8.25,13.41,13.41,0,0,1,5.46-5.48,18.79,18.79,0,0,1,14.22-1,12.5,12.5,0,0,1,4.44,2.42L231,43.61a13.7,13.7,0,0,0-3.72-2,10.87,10.87,0,0,0-3.81-.69c-2.62,0-4.6.76-5.92,2.28s-2,3.66-2,6.48.66,5,2,6.56,3.3,2.24,5.92,2.24a11.3,11.3,0,0,0,3.81-.65A15.08,15.08,0,0,0,231,55.73L233.35,62a12.86,12.86,0,0,1-4.44,2.46A18.31,18.31,0,0,1,223.19,65.36Z"/><path class="cls-3" d="M238.24,64.88V34.46H246v13h.08l11.6-13h9.22L253.65,48.91l13.75,16h-9.27l-12-13.72H246V64.88Z"/><path class="cls-3" d="M269.43,64.88V34.46h21.08v6.12H276.88v5.79h12.65V52.5H276.88v6.25h13.63v6.13Z"/><path class="cls-3" d="M296.48,64.88V34.46h14.35q5.09,0,7.83,2.54a8.91,8.91,0,0,1,2.79,7,9.47,9.47,0,0,1-1.69,5.74,8.65,8.65,0,0,1-4.83,3.2,6.17,6.17,0,0,1,3.81,3.32l4.66,8.63h-8.55l-5.16-9.67a3.07,3.07,0,0,0-1.31-1.29,3.89,3.89,0,0,0-1.78-.39h-2.33V64.88Zm7.79-17h5.16q4.62,0,4.62-3.71t-4.62-3.67h-5.16Z"/></symbol></defs><use width="323.4" height="99.19" transform="translate(0.49 0.08)" xlink:href="#white_logo"/></svg>